<?xml version="1.0" standalone="no"?>
<!DOCTYPE svg PUBLIC "-//W3C//DTD SVG 20010904//EN"
 "http://www.w3.org/TR/2001/REC-SVG-20010904/DTD/svg10.dtd">
<svg version="1.0" xmlns="http://www.w3.org/2000/svg"
 width="114.000000pt" height="114.000000pt" viewBox="0 0 114.000000 114.000000"
 preserveAspectRatio="xMidYMid meet">
<metadata>
Created by potrace 1.14, written by Peter Selinger 2001-2017
</metadata>
<g transform="translate(0.000000,114.000000) scale(0.100000,-0.100000)"
fill="#000000" stroke="none">
<path d="M855 1082 c-40 -19 -89 -57 -91 -70 0 -4 -6 -20 -13 -37 -34 -81 1
-188 77 -236 25 -16 52 -29 59 -29 15 0 16 -9 3 -30 -5 -9 -5 -19 1 -27 6 -7
13 -38 16 -70 6 -68 -12 -99 -63 -109 -35 -7 -35 -5 -49 105 -6 49 -18 57 -65
44 l-40 -10 0 47 c0 93 -51 185 -129 234 -49 32 -134 56 -155 44 -11 -6 -16
-5 -16 3 0 8 -4 8 -12 2 -7 -6 -23 -9 -35 -8 -12 1 -20 -2 -17 -7 3 -4 -1 -8
-9 -8 -24 0 -95 -54 -125 -95 -63 -87 -74 -203 -28 -293 13 -26 32 -54 40 -61
9 -8 16 -19 16 -26 0 -18 -36 -96 -41 -90 -5 4 -39 12 -61 14 -5 1 -8 10 -8
20 0 19 -1 19 -41 -1 -27 -13 -39 -24 -35 -34 4 -12 2 -12 -14 -4 -17 9 -19 7
-16 -25 2 -31 26 -64 47 -65 4 0 9 -9 12 -19 2 -11 30 -34 61 -51 56 -32 56
-33 53 -74 l-3 -41 91 2 c49 1 94 2 98 2 5 1 7 37 5 81 -3 77 -2 80 19 80 21
0 22 -3 17 -72 -3 -39 -7 -75 -10 -80 -3 -4 5 -8 18 -9 28 -1 460 -1 470 0 3
1 6 23 4 51 -2 47 -1 50 24 50 31 0 84 31 104 62 31 47 18 131 -23 160 -20 14
-20 17 -6 45 20 40 22 103 6 186 -12 59 -16 68 -32 64 -11 -3 -19 -1 -19 4 0
5 15 9 33 9 32 0 55 13 100 57 54 53 69 152 33 223 -46 92 -162 134 -251 92z
m-171 -579 c-10 -7 -15 -20 -11 -33 7 -28 -7 -33 -27 -11 -17 18 -16 21 10 62
27 43 27 43 36 19 7 -19 5 -27 -8 -37z m-584 -182 c0 -18 -14 -20 -26 -3 -19
25 -17 34 6 22 11 -6 20 -14 20 -19z"/>
</g>
</svg>
